<svg xmlns="http://www.w3.org/2000/svg" viewBox="0 0 410 404"><defs><linearGradient id="a" x1="6.559" y1="32.716" x2="277.34" y2="360.487" gradientUnits="userSpaceOnUse"><stop offset="0" stop-color="#41d1ff"/><stop offset="1" stop-color="#bd34fe"/></linearGradient><linearGradient id="b" x1="81.837" y1="171.518" x2="266.895" y2="296.955" gradientUnits="userSpaceOnUse"><stop offset="0" stop-color="#ffea83"/><stop offset="0.083" stop-color="#ffdd35"/><stop offset="1" stop-color="#ffa800"/></linearGradient></defs><path fill="#17191c" d="M399.641 59.525 215.883 388.488c-3.483 6.162-12.45 6.185-15.966.045L10.337 59.553c-3.727-6.544 1.162-14.59 8.584-14.394l183.258 4.876a9.226 9.226 0 0 0 9.162-6.864l27.12-88.84c2.446-8.01 13.858-8.005 16.296.006l26.918 88.744a9.222 9.222 0 0 0 9.173 6.876l183.458-4.885c7.42-.197 12.309 7.85 8.58 14.392Z"/><path fill="url(#a)" d="m215.744 356.577 155.04-269.627a4.864 4.864 0 0 0-4.972-7.228l-108.37 9.373c-2.957.256-5.414-1.976-5.351-4.943l2.626-126.466c.109-5.247-7.163-7.173-9.644-2.495L154.985 231.112a4.864 4.864 0 0 0 4.955 7.222l108.973-9.422c2.958-.255 5.412 1.978 5.348 4.945l-3.032 133.574c-.118 5.233 7.057 7.215 9.528 2.623Z"/><path fill="url(#b)" d="M276.96 117.834 151.177 235.155c-4.813 4.507-1.326 12.499 5.303 12.051l79.59-5.441c3.134-.214 5.694 2.466 5.43 5.596l-6.587 78.154c-.528 6.265 7.54 9.235 11.211 4.217l11.44-15.515 57.644-144.555c2.146-5.382-3.926-10.435-8.848-7.317Z"/></svg>
